<mxfile host="65bd71144e">
    <diagram id="Smseb0Y5ZLO8-_wWjXUX" name="Page-1">
        <mxGraphModel dx="1074" dy="378" grid="1" gridSize="10" guides="1" tooltips="1" connect="1" arrows="1" fold="1" page="1" pageScale="1" pageWidth="827" pageHeight="1169" math="0" shadow="0">
            <root>
                <mxCell id="0"/>
                <mxCell id="1" parent="0"/>
                <mxCell id="3" style="edgeStyle=none;html=1;entryX=0.5;entryY=0;entryDx=0;entryDy=0;" parent="1" source="2" target="4" edge="1">
                    <mxGeometry relative="1" as="geometry">
                        <mxPoint x="414" y="250" as="targetPoint"/>
                        <Array as="points">
                            <mxPoint x="414" y="220"/>
                        </Array>
                    </mxGeometry>
                </mxCell>
                <mxCell id="2" value="area/perimeter&lt;br&gt;&amp;nbsp;pentagon" style="rounded=0;whiteSpace=wrap;html=1;" parent="1" vertex="1">
                    <mxGeometry x="354" y="140" width="120" height="60" as="geometry"/>
                </mxCell>
                <mxCell id="14" style="edgeStyle=orthogonalEdgeStyle;rounded=0;html=1;entryX=0.5;entryY=0;entryDx=0;entryDy=0;" parent="1" source="4" target="11" edge="1">
                    <mxGeometry relative="1" as="geometry">
                        <Array as="points">
                            <mxPoint x="414" y="390"/>
                            <mxPoint x="510" y="390"/>
                        </Array>
                    </mxGeometry>
                </mxCell>
                <mxCell id="4" value="Process" style="rounded=0;whiteSpace=wrap;html=1;" parent="1" vertex="1">
                    <mxGeometry x="354" y="250" width="120" height="60" as="geometry"/>
                </mxCell>
                <mxCell id="13" style="edgeStyle=orthogonalEdgeStyle;rounded=0;html=1;" parent="1" source="5" target="12" edge="1">
                    <mxGeometry relative="1" as="geometry"/>
                </mxCell>
                <mxCell id="5" value="Output" style="rounded=0;whiteSpace=wrap;html=1;" parent="1" vertex="1">
                    <mxGeometry x="540" y="250" width="120" height="60" as="geometry"/>
                </mxCell>
                <mxCell id="22" style="edgeStyle=none;html=1;entryX=0.5;entryY=0;entryDx=0;entryDy=0;rounded=0;exitX=0.5;exitY=1;exitDx=0;exitDy=0;" parent="1" target="20" edge="1" source="6">
                    <mxGeometry relative="1" as="geometry">
                        <mxPoint x="230" y="330" as="sourcePoint"/>
                        <Array as="points"/>
                    </mxGeometry>
                </mxCell>
                <mxCell id="6" value="Input" style="rounded=0;whiteSpace=wrap;html=1;" parent="1" vertex="1">
                    <mxGeometry x="170" y="250" width="120" height="60" as="geometry"/>
                </mxCell>
                <mxCell id="8" style="edgeStyle=orthogonalEdgeStyle;html=1;entryX=0.5;entryY=0;entryDx=0;entryDy=0;rounded=0;" parent="1" target="6" edge="1">
                    <mxGeometry relative="1" as="geometry">
                        <mxPoint x="244" y="260" as="targetPoint"/>
                        <mxPoint x="414" y="220" as="sourcePoint"/>
                    </mxGeometry>
                </mxCell>
                <mxCell id="9" style="edgeStyle=none;html=1;entryX=0.5;entryY=0;entryDx=0;entryDy=0;rounded=0;" parent="1" target="5" edge="1">
                    <mxGeometry relative="1" as="geometry">
                        <mxPoint x="600" y="240" as="targetPoint"/>
                        <mxPoint x="410" y="220" as="sourcePoint"/>
                        <Array as="points">
                            <mxPoint x="600" y="220"/>
                        </Array>
                    </mxGeometry>
                </mxCell>
                <mxCell id="11" value="perimeter = (5) * a" style="rounded=0;whiteSpace=wrap;html=1;" parent="1" vertex="1">
                    <mxGeometry x="450" y="480" width="120" height="60" as="geometry"/>
                </mxCell>
                <mxCell id="12" value="Show area and perimeter" style="rounded=0;whiteSpace=wrap;html=1;" parent="1" vertex="1">
                    <mxGeometry x="540" y="350" width="120" height="60" as="geometry"/>
                </mxCell>
                <mxCell id="19" style="edgeStyle=orthogonalEdgeStyle;html=1;entryX=0.5;entryY=0;entryDx=0;entryDy=0;rounded=0;" parent="1" target="24" edge="1">
                    <mxGeometry relative="1" as="geometry">
                        <mxPoint x="350" y="480" as="targetPoint"/>
                        <mxPoint x="414" y="390" as="sourcePoint"/>
                        <Array as="points">
                            <mxPoint x="350" y="390"/>
                        </Array>
                    </mxGeometry>
                </mxCell>
                <mxCell id="20" value="Get border length or&amp;nbsp;(a)" style="rounded=0;whiteSpace=wrap;html=1;" parent="1" vertex="1">
                    <mxGeometry x="170" y="380" width="120" height="60" as="geometry"/>
                </mxCell>
                <mxCell id="24" value="Area=&lt;br&gt;1/4√5(5+1)√5a2" style="rounded=0;whiteSpace=wrap;html=1;" vertex="1" parent="1">
                    <mxGeometry x="290" y="480" width="120" height="60" as="geometry"/>
                </mxCell>
            </root>
        </mxGraphModel>
    </diagram>
</mxfile>